# xmcd CD database file
#
# Track frame offsets:
#	187
#	14832
#	42457
#	60422
#	84160
#	109320
#	121170
#	146637
#	164027
#	192095
#	209347
#	225295
#
# Disc length: 3237 seconds
#
# Revision: 0
# Processed by: cddbd v1.5.1PL2 Copyright (c) Steve Scherf et al.
# Submitted via: CDex 1.70beta2
#
DISCID=a20ca30c
DTITLE=Jackie Paris - Lucky To Be Me
DYEAR=1989
DGENRE=Jazz
TTITLE0=You And The Night And The Music
TTITLE1=I Thought About You
TTITLE2=Out Of This World
TTITLE3=Lucky To Be Me
TTITLE4=When The Sun Comes Out
TTITLE5=Dancing In The Dark
TTITLE6=I Remember Clifford
TTITLE7=Daahoud
TTITLE8=I Should Care
TTITLE9=While We're Young
TTITLE10=My Ideal
TTITLE11=All Or nothing At All
EXTD=YEAR: 1989
EXTT0=
EXTT1=
EXTT2=
EXTT3=
EXTT4=
EXTT5=
EXTT6=
EXTT7=
EXTT8=
EXTT9=
EXTT10=
EXTT11=
PLAYORDER=
